<?xml version="1.0" encoding="utf-8"?>
<!-- Generator: Adobe Illustrator 19.0.0, SVG Export Plug-In . SVG Version: 6.00 Build 0)  -->
<svg version="1.1" id="Layer_1" xmlns="http://www.w3.org/2000/svg" xmlns:xlink="http://www.w3.org/1999/xlink" x="0px" y="0px"
	 viewBox="0 0 640 480" style="enable-background:new 0 0 640 480;" xml:space="preserve">
<style type="text/css">
	.st0{fill:#FFFFFF;}
	.st1{fill:#FF3B46;}
</style>
<g id="XMLID_36_">
	<g id="XMLID_116_">
		<path id="XMLID_136_" class="st0" d="M528.6,458.7c-50.4,0.3-100.8,0.6-151.2,0.9c-51-77.2-102-154.4-153.1-231.7
			c-6.9-11.1-5.3-24.5,2.3-31.3c9.1-8.1,22.9-3.7,23.7-3.5c5.5,1.8,9.1,5.1,11.1,7.1c5.9,5.8,11.7,8,15,9c5,1.4,9.3,1.4,14.6,1.3
			c0.5,0,6.9-0.1,13.5-1.3c36.3-6.4,60.9-26.7,60.9-26.7c12.5-10.3,18.8-15.8,20.3-24.9c2.7-16.2-8.9-34.1-28.6-40.1
			c-62.1,0.6-124.2,1.2-186.2,1.8c-8.1-1.7-44.9-10.4-68.2-45.6C86.9,49.9,85.2,26,85.2,15.7c106.6,0.5,213.3,0.9,319.9,1.4
			c12.3,3.5,36.1,12.2,56.7,34.1c22.1,23.4,28.8,49.4,31.8,61.8c3.6,14.6,4.2,27.4,4.6,35c0.5,11,1.1,23.3-1.8,38.7
			c-3.9,20.8-11.7,35.3-13.4,38.3c-11.6,21.1-27.3,34.3-37.8,41.5c-7.4,4.3-14.8,8.6-22.1,12.9C458.3,339.1,493.5,398.9,528.6,458.7
			z"/>
	</g>
	<circle id="XMLID_115_" class="st1" cx="198.8" cy="389.7" r="69.9"/>
</g>
</svg>
