<?xml version="1.0" encoding="utf-8"?>
<!-- Generator: Adobe Illustrator 19.0.0, SVG Export Plug-In . SVG Version: 6.00 Build 0)  -->
<svg version="1.1" id="Layer_1" xmlns="http://www.w3.org/2000/svg" xmlns:xlink="http://www.w3.org/1999/xlink" x="0px" y="0px"
	 viewBox="0 0 640 480" style="enable-background:new 0 0 640 480;" xml:space="preserve">
<style type="text/css">
	.st0{fill:#FF3B46;}
	.st1{fill:#FFFFFF;}
	.st2{fill:#1D1D1B;}
</style>
<path id="XMLID_66_" class="st0" d="M328.9,72.4H6.2c-3.4,0-6.2,2.8-6.2,6.2V402c0,3.4,2.8,6.2,6.2,6.2h322.7c3.4,0,6.2-2.8,6.2-6.2
	V78.6C335.1,75.2,332.3,72.4,328.9,72.4z"/>
<g id="XMLID_69_">
	<path id="XMLID_70_" class="st1" d="M103.9,280v89.2H48.6V103.3h105.8c64.1,0,96.2,29.2,96.2,87.6c0,34.7-13.4,60.2-40.1,76.6
		l38.9,101.7h-60.5L157.2,280H103.9z M184.5,222.2c6.4-7.8,9.6-18.1,9.6-30.9c0-12.8-3.4-22.9-10.2-30.5
		c-6.8-7.6-16.6-11.3-29.5-11.3h-50.5v84.5h51.3C168.3,233.9,178.1,230,184.5,222.2z"/>
</g>
<g id="XMLID_64_">
	<path id="XMLID_65_" class="st1" d="M297.7,185.7h17.9l10.4,69.4h1.9l15.1-69.4h19.8l15.1,69.4h1.9l10.4-69.4h17.9l-16.1,84H366
		l-13.2-63.9l-13.2,63.9h-25.8L297.7,185.7z"/>
	<path id="XMLID_82_" class="st1" d="M410,269.8l18.9-84h32.4l18.9,84h-17.1l-3.3-15.2h-29.4l-3.3,15.2H410z M442.1,199.8l-8.5,39.9
		h23l-8.5-39.9H442.1z"/>
	<path id="XMLID_85_" class="st1" d="M482.3,185.7h17.9l10.4,69.4h1.9l15.1-69.4h19.8l15.1,69.4h1.9l10.4-69.4h17.9l-16.1,84h-25.8
		l-13.2-63.9l-13.2,63.9h-25.8L482.3,185.7z"/>
</g>
<g id="XMLID_2_">
	<path id="XMLID_22_" class="st1" d="M322.8,340.4v28.8h-17.4v-85.9h33.3c20.2,0,30.3,9.4,30.3,28.3c0,11.2-4.2,19.4-12.6,24.8
		l12.2,32.8h-19.1l-10-28.8H322.8z M348.2,321.7c2-2.5,3-5.9,3-10s-1.1-7.4-3.2-9.9c-2.1-2.4-5.2-3.7-9.3-3.7h-15.9v27.3H339
		C343.1,325.5,346.2,324.2,348.2,321.7z"/>
	<path id="XMLID_75_" class="st1" d="M379.5,298.5v-15.2h56.8v15.2l-35.9,53.3v2.3h35.9v15.2h-56.8v-15l35.9-53.4v-2.3H379.5z"/>
	<path id="XMLID_77_" class="st1" d="M485.5,369.2h-17.4v-34.7l-26.5-51.1h19.3l15.8,34.2l15.8-34.2h19.3l-26.3,51.1V369.2z"/>
	<path id="XMLID_79_" class="st1" d="M538.7,369.2h-17.4v-85.9h17.4v37.8l11.6-1.3l14.1-36.5h19.8l-18.7,43.1l19.2,42.8h-20.1
		L550.3,335l-11.6,1.3V369.2z"/>
</g>
<circle id="XMLID_68_" class="st2" cx="278.1" cy="351.7" r="18.7"/>
<circle id="XMLID_63_" class="st0" cx="621.3" cy="358" r="18.7"/>
</svg>
