<?xml version="1.0" encoding="utf-8"?>
<!-- Generator: Adobe Illustrator 19.0.0, SVG Export Plug-In . SVG Version: 6.00 Build 0)  -->
<svg version="1.1" id="Layer_1" xmlns="http://www.w3.org/2000/svg" xmlns:xlink="http://www.w3.org/1999/xlink" x="0px" y="0px"
	 viewBox="0 0 640 480" style="enable-background:new 0 0 640 480;" xml:space="preserve">
<style type="text/css">
	.st0{fill:none;}
	.st1{fill:#F5F5F5;}
	.st2{fill:#ECECEC;}
	.st3{fill:#FFFFFF;}
	.st4{font-family:'Raleway-Light';}
	.st5{font-size:65.6628px;}
	.st6{fill:#FF3B46;}
</style>
<line id="XMLID_107_" class="st0" x1="294.8" y1="271.1" x2="290.3" y2="281.1"/>
<g id="XMLID_26_">
	<polygon id="XMLID_31_" class="st1" points="453,86.5 400.1,245 432.3,245 485.9,86.5 	"/>
	<polygon id="XMLID_29_" class="st2" points="403.2,86.6 350.3,245.2 382.5,245.2 436.1,86.6 	"/>
	<polygon id="XMLID_28_" class="st3" points="330,86.5 382.9,245 350.7,245 297.1,86.5 	"/>
	<polygon id="XMLID_27_" class="st3" points="379.6,86.6 432.5,245.2 400.4,245.2 346.8,86.6 	"/>
</g>
<rect id="XMLID_19_" x="3.6" y="274.2" class="st0" width="632.7" height="175.7"/>
<text id="XMLID_117_" transform="matrix(1 0 0 1 3.6468 322.1358)"><tspan x="0" y="0" class="st2 st4 st5">Front-End Develop</tspan><tspan x="576.2" y="0" class="st2 st4 st5">-</tspan><tspan x="0" y="78.8" class="st2 st4 st5">er</tspan></text>
<path id="XMLID_13_" class="st3" d="M233.7,245.3c17.2,0,34.4,0,51.5,0c-16.3-23.9-32.5-47.7-48.8-71.6c5-1.5,13.3-4.5,21.4-11.4
	c13.8-11.6,17.9-26.4,19.3-31.6c2.7-10.3,2.2-18.6,1.7-25.7c-0.6-8.6-1.1-16-5.3-24.5c-4.7-9.4-11.4-14.8-16.6-19
	c-3.8-3.1-10.5-7.9-20.1-11.6c-8.1-3.1-15.4-4.3-20.5-4.7c-38.4,0.1-76.9,0.1-115.3,0.2c8.7,13.5,17.4,27,26.1,40.5
	c26.6,0,53.2,0.1,79.9,0.1c1,0,17.7,0.9,25.1,14.5c3.7,6.9,3.2,13.6,2.8,16.6c-1.5,11.3-9.2,17.8-10.8,19.1
	c-6.9,5.5-14.3,6.3-17.1,6.5c-13.9,0.1-27.9,0.2-41.8,0.2C188.1,177,210.9,211.1,233.7,245.3z"/>
<circle id="XMLID_3_" class="st6" cx="129.8" cy="209.4" r="35.9"/>
</svg>
