<?xml version="1.0" encoding="utf-8"?>
<!-- Generator: Adobe Illustrator 19.0.0, SVG Export Plug-In . SVG Version: 6.00 Build 0)  -->
<svg version="1.1" id="Layer_1" xmlns="http://www.w3.org/2000/svg" xmlns:xlink="http://www.w3.org/1999/xlink" x="0px" y="0px"
	 viewBox="0 0 640 480" style="enable-background:new 0 0 640 480;" xml:space="preserve">
<style type="text/css">
	.st0{fill:#FFFFFF;}
	.st1{fill:#ee664e;}
	.st2{fill:none;stroke:#ffffff;stroke-width:8;stroke-miterlimit:10;}
</style>
<g id="XMLID_106_">
	<path id="XMLID_99_" class="st0" d="M457.3,362c-28.1,0.2-56.2,0.3-84.3,0.5c-28.4-43-56.9-86.1-85.3-129.1
		c-3.8-6.2-3-13.6,1.3-17.5c5.1-4.5,12.8-2.1,13.2-1.9c3.1,1,5.1,2.8,6.2,4c3.3,3.2,6.5,4.5,8.4,5c2.8,0.8,5.2,0.8,8.2,0.7
		c0.3,0,3.8-0.1,7.5-0.7c20.3-3.6,33.9-14.9,33.9-14.9c7-5.8,10.5-8.8,11.3-13.9c1.5-9-5-19-15.9-22.4c-34.6,0.3-69.2,0.7-103.8,1
		c-4.5-1-25-5.8-38-25.4c-8.8-13.3-9.7-26.6-9.8-32.4c59.4,0.3,118.9,0.5,178.3,0.8c6.9,2,20.1,6.8,31.6,19
		c12.3,13.1,16,27.5,17.7,34.4c2,8.1,2.4,15.3,2.6,19.5c0.3,6.1,0.6,13-1,21.6c-2.2,11.6-6.5,19.7-7.5,21.3
		c-6.5,11.8-15.2,19.1-21.1,23.1c-4.1,2.4-8.2,4.8-12.3,7.2C418,295.4,437.7,328.7,457.3,362z"/>
</g>
<circle id="XMLID_105_" class="st1" cx="273.4" cy="332.9" r="38.9"/>
<path id="XMLID_131_" class="st2" d="M139.9,109.9l179-103.3c9.1-5.3,20.4-5.3,29.5,0l179,103.3c9.1,5.3,14.7,15,14.7,25.5v206.7
	c0,10.5-5.6,20.3-14.7,25.5L348.4,471c-9.1,5.3-20.4,5.3-29.5,0l-179-103.3c-9.1-5.3-14.7-15-14.7-25.5V135.5
	C125.2,124.9,130.8,115.2,139.9,109.9z"/>
</svg>
