<svg width="16" height="16" viewBox="0 0 16 16" fill="none" xmlns="http://www.w3.org/2000/svg">
<path fill-rule="evenodd" clip-rule="evenodd" d="M15.75 8C15.75 8.41421 15.4142 8.75 15 8.75L1 8.75C0.585787 8.75 0.25 8.41421 0.25 8C0.25 7.58579 0.585787 7.25 1 7.25L15 7.25C15.4142 7.25 15.75 7.58579 15.75 8Z" fill="black"/>
<path fill-rule="evenodd" clip-rule="evenodd" d="M7.46967 15.5303C7.17678 15.2374 7.17678 14.7626 7.46967 14.4697L13.9393 8L7.46967 1.53033C7.17678 1.23744 7.17678 0.762562 7.46967 0.46967C7.76257 0.176776 8.23744 0.176776 8.53033 0.46967L15.5303 7.46967C15.8232 7.76256 15.8232 8.23744 15.5303 8.53033L8.53033 15.5303C8.23744 15.8232 7.76256 15.8232 7.46967 15.5303Z" fill="white"/>
</svg>
